<?xml version="1.0" standalone="no"?>
<!DOCTYPE svg PUBLIC "-//W3C//DTD SVG 20010904//EN"
 "http://www.w3.org/TR/2001/REC-SVG-20010904/DTD/svg10.dtd">
<svg version="1.0" xmlns="http://www.w3.org/2000/svg"
 width="361.000000pt" height="355.000000pt" viewBox="0 0 361.000000 355.000000"
 preserveAspectRatio="xMidYMid meet">
<metadata>
Created by potrace 1.15, written by Peter Selinger 2001-2017
</metadata>
<g transform="translate(0.000000,355.000000) scale(0.100000,-0.100000)"
fill="#FCD440" stroke="none">
<path d="M1630 2880 c-422 -69 -772 -372 -904 -785 -8 -27 -22 -93 -31 -145
-37 -234 -4 -461 100 -671 62 -125 117 -203 216 -301 202 -201 449 -311 729
-325 319 -15 596 85 825 299 500 467 467 1271 -70 1697 -125 100 -266 168
-434 212 -87 23 -339 34 -431 19z m-612 -1053 c45 -41 17 -131 -43 -137 -62
-7 -95 21 -95 78 1 81 77 114 138 59z m24 -226 c13 -11 30 -39 37 -63 37 -125
137 -267 255 -361 115 -93 316 -166 457 -167 71 0 110 -53 85 -114 -22 -52
-58 -62 -174 -47 -230 30 -409 119 -563 278 -115 117 -214 290 -226 393 -5 43
-3 51 20 74 31 31 74 34 109 7z"/>
</g>
</svg>