<?xml version="1.0" standalone="no"?>
<!DOCTYPE svg PUBLIC "-//W3C//DTD SVG 20010904//EN"
 "http://www.w3.org/TR/2001/REC-SVG-20010904/DTD/svg10.dtd">
<svg version="1.0" xmlns="http://www.w3.org/2000/svg"
 width="512.000000pt" height="512.000000pt" viewBox="0 0 512.000000 512.000000"
 preserveAspectRatio="xMidYMid meet">
<metadata>
Created by potrace 1.15, written by Peter Selinger 2001-2017
</metadata>
<g transform="translate(0.000000,512.000000) scale(0.100000,-0.100000)"
fill="#990000" stroke="none">
<path d="M2432 4939 c-75 -13 -199 -55 -252 -86 -25 -14 -72 -48 -105 -74 -33
-26 -504 -492 -1046 -1036 -1112 -1115 -1035 -1026 -1027 -1178 5 -92 26 -140
85 -197 57 -55 124 -81 208 -81 133 0 64 -62 1175 1048 901 900 1009 1005
1048 1015 97 25 26 89 1132 -1015 553 -552 1019 -1010 1035 -1018 17 -8 56
-20 88 -26 102 -19 199 12 268 86 56 58 72 98 77 189 8 144 13 136 -454 604
l-404 406 0 471 c0 448 -1 475 -20 526 -24 63 -80 123 -147 158 -67 34 -187
34 -254 1 -55 -27 -113 -83 -142 -137 -20 -36 -22 -58 -25 -234 l-4 -193 -311
309 c-304 301 -374 361 -473 404 -131 56 -326 81 -452 58z"/>
<path d="M2495 3791 c-11 -5 -417 -407 -902 -893 l-882 -883 -6 -55 c-4 -30
-5 -345 -3 -700 4 -588 6 -650 22 -700 64 -195 214 -335 403 -375 53 -12 164
-15 516 -15 l447 0 0 655 0 655 470 0 470 0 0 -655 0 -655 448 0 c351 0 462 3
515 15 189 40 339 180 403 375 16 50 18 112 22 700 2 355 1 670 -3 700 l-6 55
-889 889 -889 890 -58 3 c-32 1 -67 -1 -78 -6z"/>
</g>
</svg>
