<svg xmlns="http://www.w3.org/2000/svg" viewBox="0 0 1024 1024" width="96" height="96">
    <path fill="#1A237E" d="M581,186.5c0,3.9 3.4,15.3 6.6,22.3 8.4,18.3 24.9,35.6 47.2,49.5 8.3,5.1 8.8,4.6 -6.5,7.7 -18.4,3.7 -34.8,10.5 -46.4,19.3 -6.5,4.9 -15.2,12.7 -14.7,13.2 0.2,0.2 2.2,-0 4.4,-0.5 4.3,-1 21.4,-2.2 21.4,-1.5 0,0.2 -3.8,2.4 -8.5,4.9 -29.6,15.7 -54.9,44 -65.4,73.2l-2.2,6 3,8.3c3.5,9.5 12.1,26.3 18.3,35.4 9.6,14.3 26.2,31.9 37.9,40.3 5.8,4.2 5.2,5.2 -2.1,3.4 -17.3,-4.2 -43.1,-32.5 -57.5,-63.4l-4.2,-8.9 -3.8,7.4c-16,31 -39.4,57.7 -55.8,63.7 -6.2,2.3 -11.7,3.4 -11.7,2.4 0,-0.4 2.4,-2.3 5.2,-4.2 6.8,-4.6 22.6,-19.7 29.8,-28.5 10.3,-12.6 18.1,-26.1 26.5,-45.9l3.8,-8.8 -2.2,-7.2c-6.7,-20.9 -24.3,-44.3 -45.6,-60.7 -7.5,-5.8 -24.1,-15.9 -26,-15.9 -0.8,-0 -1.5,-0.5 -1.5,-1.1 0,-1.2 11.9,-0.5 19.5,1.1 2.2,0.5 4.1,0.7 4.3,0.5 0.5,-0.5 -2.6,-3.1 -12.7,-11.3 -12.2,-9.7 -29.7,-17.4 -50.4,-22.2 -5.3,-1.2 -9.7,-2.3 -9.7,-2.5 0,-0.2 2.4,-1.6 5.3,-3.3 14.3,-8.1 34.6,-26.8 43.2,-39.7 5.9,-8.9 10.8,-20.2 12.3,-28.3 0.5,-2.8 0.8,-5.2 0.5,-5.2 -0.2,-0 -6.3,5.4 -13.6,12.1 -23.7,21.7 -46.4,34.7 -81.1,46.5 -14.4,4.9 -15,4.6 -7.7,-3.1 3.3,-3.6 7.7,-9.1 9.7,-12.3 7.9,-12.2 14.4,-29.4 14.4,-38.1 0,-3.3 -0.1,-3.3 -11.6,7.8 -26.8,25.8 -52.7,41.2 -89.4,53.1 -10.2,3.3 -19.9,6.9 -21.7,8 -4,2.4 -6.2,6.5 -7.3,13.8 -0.5,3.1 -1.8,6.4 -2.7,7.3 -3.7,3.6 -31.4,14.6 -33.5,13.3 -0.4,-0.3 -0.8,-3 -0.8,-6 0,-3 -0.4,-5.4 -0.9,-5.4 -0.4,-0 -4.4,3.7 -8.8,8.3 -15.7,16.3 -18.1,27.8 -10.7,51.2 2.9,9.1 10.9,26.5 12.1,26.4 0.4,-0 2.1,-2.6 3.6,-5.9 2.9,-6.2 11,-16 13.2,-16 0.7,-0 1.8,0.7 2.5,1.5 1.2,1.4 11.1,7.5 12.3,7.5 0.3,-0 0.1,-1.6 -0.5,-3.7 -2.9,-10.6 4.2,-17.6 23,-22.3 12,-3.1 21.5,-2.4 32.9,2.1l3.2,1.3 -10.5,3.7c-5.7,2 -13.3,5.5 -16.7,7.8 -6.5,4.2 -14.6,12.9 -17.8,19.2 -1,2.1 -2.9,4.5 -4.1,5.3 -2.8,2 -9.6,2 -16.7,0.2l-5.3,-1.3 0.7,2.6c2.4,9.8 15.1,22.9 25.7,26.7 4.7,1.6 20.9,4.6 21.5,4 0.3,-0.3 -0.5,-1.8 -1.8,-3.5 -2.6,-3.6 -3.6,-11.4 -2,-16.4 1.6,-4.8 10.8,-13.2 18.4,-16.8 10,-4.6 19.3,-6.2 31.7,-5.4 5.8,0.4 11.7,0.7 13.2,0.7 1.8,0.1 4.9,-1.7 9.5,-5.4 12.1,-9.8 16.6,-18.8 16.6,-33.3 0,-7.4 -0.4,-10.1 -2.6,-15.5 -1.4,-3.5 -2.4,-6.6 -2.2,-6.8 0.3,-0.3 3.4,2.5 6.9,6.1 5.3,5.4 6.8,7.7 8.2,12.4 3.4,11.7 -1.3,26.8 -11.4,36.9l-5.2,5.1 5.3,2.3c16.4,7.4 34.3,23.6 41,37.1 4.3,8.9 6.1,18.1 5.3,26.8l-0.7,6.4 22.4,22.6c12.3,12.4 33.3,34.3 46.7,48.6 39.9,42.6 55.2,58.5 56,58.5 0.5,-0 12,-12 25.7,-26.8 37.3,-40.2 41.4,-44.4 71.1,-74.4l27.5,-27.7 0.2,-10.8c0.2,-12 2.1,-18.5 8,-27.8 7.4,-11.6 22.5,-24.4 37.9,-32.2 2.8,-1.4 5.2,-2.6 5.3,-2.7 0.2,-0.1 -2.2,-2.8 -5.3,-6 -11.3,-11.6 -15.2,-28.2 -9.4,-39.6 2,-3.8 14,-15.9 14,-14.1 0,0.7 -0.9,2.9 -1.9,4.9 -3.4,6.6 -4.6,15 -3.3,22.7 2,12.3 8.8,22.3 20.4,30.3l4.8,3.3 6.7,-1.2c8.7,-1.5 22.9,-0.6 31.5,2.1 8.8,2.7 18.3,9.2 22.5,15.4 4.3,6.4 4.6,13.7 0.7,20.3l-2.5,4.4 5.3,-0.7c14.7,-1.7 24.1,-5.8 32.4,-14 4.9,-4.9 11.9,-16.8 10.9,-18.4 -0.3,-0.4 -2.7,-0.1 -5.4,0.7 -2.7,0.8 -7.5,1.3 -10.7,1.1l-5.8,-0.3 -4.7,-7c-9.4,-13.9 -22.3,-23.1 -37.8,-27.1 -3.9,-1 -7.1,-2.1 -7.1,-2.4 0,-0.3 3,-1.6 6.8,-2.9 9.8,-3.4 18,-3.7 28.4,-1.2 18.7,4.4 26.6,11.6 24.3,22 -0.9,4.1 0.1,4 8.2,-0.9 3.6,-2.3 7.2,-3.9 7.9,-3.6 1.5,0.6 9.7,12 13.4,18.8l2.9,5.3 3.7,-8c9.8,-21.6 13.6,-36.9 11.6,-47.1 -2,-9.5 -6,-16.2 -15.1,-25.2 -4.7,-4.5 -8.8,-8.2 -9.3,-8.2 -0.4,-0 -0.8,2.5 -0.8,5.5 0,4.2 -0.4,5.5 -1.5,5.5 -1.6,-0 -18.8,-6.4 -27.6,-10.3 -5.7,-2.5 -5.7,-2.5 -6.4,-7.8 -1.7,-12.8 -4.5,-15.4 -22.8,-21.5 -31.9,-10.6 -52.3,-20.2 -70.7,-33.2 -7.8,-5.6 -24.7,-20.1 -31.5,-27.1 -2.7,-2.8 -5.3,-5.1 -5.8,-5.1 -1.1,-0 -0.1,6.7 2.5,15.5 3.6,12.4 10.9,25 21.4,36.7 3,3.3 5.2,6.3 5,6.6 -0.3,0.2 -6.6,-1.7 -14,-4.2 -36.8,-12.6 -57.9,-25.2 -82.3,-49 -7.2,-7 -10.3,-9.4 -10.3,-8.1zM286.7,283.4c-11.8,12.1 -16.1,14.2 -22.2,11.3 -3.9,-1.8 -8.5,-9.4 -6.3,-10.2 0.7,-0.2 6.5,-1.7 13,-3.4 6.4,-1.6 14.2,-4.1 17.5,-5.4 3.2,-1.4 6.4,-2.5 7,-2.6 0.7,-0 -3.3,4.6 -9,10.3zM730.6,273.9c1.1,1.1 20.8,7.4 28.8,9.2 3.2,0.7 6,1.8 6.3,2.5 1.3,3.5 -6.3,10.4 -11.5,10.4 -2.8,-0 -12.7,-7.7 -20,-15.6 -3.4,-3.7 -6.2,-6.9 -6.2,-7.1 0,-0.6 1.6,-0.3 2.6,0.6zM378.7,293.3c18.6,9.1 29.4,15.7 43.3,26.8 30.4,24.1 46.1,52.3 45.9,82.4 -0.1,14.5 -1.3,18.7 -2.3,8.5 -2.7,-26.3 -17.5,-53.2 -42.6,-77.3 -10.3,-9.9 -14.3,-13.3 -38.7,-32.1 -19.1,-14.7 -19.3,-15 -5.6,-8.3zM655.8,289.5c-0.3,0.3 -5.5,4.3 -11.6,8.8 -40,29.9 -61,50.6 -72.6,71.8 -7.3,13.4 -12.3,30 -12.8,42.6 -0.2,3.5 -0.6,6.3 -0.9,6.3 -0.3,-0 -0.9,-2.4 -1.3,-5.3 -4.7,-39.2 15,-73.5 58.9,-102.9 11.8,-7.8 43.8,-24.8 40.3,-21.3zM821.2,312c5,1.4 9.4,5.3 10.8,9.6 1.5,4.5 0.7,5.3 -2.8,2.6 -1.5,-1.2 -6,-4.5 -9.9,-7.3 -4,-2.8 -7.3,-5.3 -7.3,-5.5 0,-0.8 5.6,-0.4 9.2,0.6zM211,312.5c0,0.2 -2.4,2 -5.4,3.9 -3,1.9 -7.3,5.1 -9.5,7.1 -4.4,4 -5.9,3.3 -4.1,-1.9 1,-3.3 5.2,-7.9 8,-8.9 1.9,-0.7 11,-0.9 11,-0.2zM382.7,342.4c20.8,11.9 39.5,33.9 45.9,54.1 3.6,11.2 4.3,27 1.6,37.5l-2,7.5 -0.1,-6.1c-0.1,-3.4 -0.8,-9.8 -1.6,-14.3 -5,-26.2 -17.7,-48.1 -42.4,-73.4 -4.1,-4.2 -7.1,-7.7 -6.6,-7.7 0.6,-0 2.9,1.1 5.2,2.4zM639.3,348.7c-25.4,25.8 -38.3,50.2 -42.9,80.8 -0.8,5.5 -1.7,10.1 -1.9,10.3 -0.8,0.8 -1.9,-12 -1.9,-21.3 0.1,-13.7 3.8,-26.4 11.8,-39.9 5.1,-8.5 19.9,-24.4 28,-29.8 6.8,-4.7 13.7,-8.8 14.8,-8.8 0.4,-0 -3.1,3.9 -7.9,8.7zM529.6,470c9.3,10.4 17,19.3 17.1,19.7 0.2,0.5 -5.9,8.3 -13.4,17.3 -7.6,9.1 -15.3,18.4 -17.1,20.8 -1.9,2.3 -3.7,4.2 -4.2,4.2 -0.8,-0 -31.5,-37.4 -33.9,-41.4 -1.4,-2.3 -1,-2.8 9,-13.7 15.8,-17.3 24.2,-25.9 24.9,-25.9 0.4,-0 8.3,8.5 17.6,19z"/>
    <path fill="#1A237E" d="M501.2,477.8c-5.6,6.4 -10.3,12.1 -10.3,12.7 0,1.1 20.2,25.4 21.2,25.4 0.4,0.1 5.5,-5.5 11.3,-12.4l10.7,-12.6 -7.3,-8.2c-4,-4.5 -8.9,-10.1 -10.7,-12.5 -1.9,-2.3 -3.7,-4.2 -4,-4.1 -0.3,-0 -5.2,5.3 -10.9,11.7z"/>
    <path fill="#1A237E" d="M164,426c0,0.3 2.9,2.5 6.3,5 20,14.3 45.9,36.1 60.7,50.9 31.4,31.5 44.5,56.4 47.9,91 0.6,6.3 1.2,11.5 1.4,11.7 0.1,0.2 3.9,-0.3 8.2,-1.1 10.8,-1.9 29.7,-1.9 39.2,0.1 17.4,3.6 31.3,10.6 44.5,22.3 12.5,11.3 81.9,89.7 97,109.6 4.4,5.8 4.5,6.2 5.2,15.4 1.1,15.3 9.9,45.3 16.2,55.3 3.3,5.3 3,5.8 -1.2,1.7 -13.4,-12.8 -23.6,-36 -25.2,-57.5l-0.7,-9 -8.4,-9.5c-14.5,-16.2 -28.3,-30.9 -29.1,-30.9 -1.2,-0 -1.2,35.8 0,47.7 2.1,21.4 7.3,40.4 15.5,56.3 16.2,31.2 48.2,53.8 83.7,59 10.3,1.5 30,0.9 40.4,-1.4 22.9,-4.9 42.5,-16.2 59.3,-34.2 13.7,-14.6 21.6,-28.1 33.6,-57.1 10.1,-24.4 21.5,-35.9 40.5,-41 7.4,-1.9 21.7,-2.1 29.4,-0.4 2.7,0.7 5.1,0.9 5.4,0.6 1,-1 -7.8,-8.1 -15.3,-12.4 -10.5,-6.1 -21.1,-8.5 -34.9,-7.9 -18.2,0.8 -32.2,7.2 -44.3,20.2 -7.4,8 -11.8,14.9 -21.3,33.6 -10.1,19.8 -13.3,24.8 -21.1,32.7 -13.3,13.4 -30,17 -40,8.6 -9.6,-8.1 -7.7,-20.7 6,-39.7 13.1,-18.2 22.1,-34.1 30,-52.9 2.8,-6.9 3.6,-9.7 2.6,-9.7 -1.3,-0 -22.8,24.2 -43.4,48.8 -21.6,25.9 -24.4,31.2 -24.5,46.2 -0.1,7.8 0.3,10.4 2.1,14.5l2.3,5 -3.6,-4c-10.2,-11.4 -11.7,-25 -4.3,-39.7 4.9,-9.7 21.5,-30.3 56.1,-69.4 70.9,-80.3 75.4,-84.8 95.2,-93.9 13.8,-6.4 22,-8 40.6,-7.9 11.1,0.1 18.2,0.6 21.6,1.6l5.1,1.4 1.1,-11.6c2,-19.7 7.3,-37.1 15.9,-51.4 15.2,-25.3 44.7,-54.4 88.8,-87.5 6.1,-4.6 11.2,-8.7 11.4,-9.3 0.2,-0.7 -32.9,-0.9 -99.1,-0.6l-99.5,0.3 -11.8,10.5c-18,15.9 -54.2,51.8 -78.4,77.5 -31.9,34.1 -51.1,55.2 -51.1,56.2 0,0.4 4.1,4.9 9,9.8l9,9 0,29.3 0,29.3 -12.6,14.7c-6.9,8.1 -12.9,14.7 -13.4,14.7 -0.5,-0 -6.5,-6.6 -13.4,-14.7l-12.6,-14.7 0,-29.3 0,-29.3 9.2,-9.2 9.2,-9.2 -5.4,-5.8c-7.7,-8.2 -29.7,-31.7 -49,-52.3 -22,-23.5 -66.1,-67.6 -78.4,-78.4l-9.9,-8.7 -98.8,0.3c-54.4,0.2 -98.9,0.5 -98.9,0.8zM321.2,462.9l22.6,0.7 9.9,8.9c18.1,16.4 64.7,63.8 85.1,86.5l20.2,22.5 0,34.7c0,19.2 -0.2,34.8 -0.4,34.8 -0.7,-0 -9.9,-9.9 -23.7,-25.5 -26.2,-29.6 -47.3,-49.9 -59,-56.8 -7.6,-4.4 -5.8,-4.7 5,-0.8 17.3,6.3 27.3,14.2 50.9,40.6 7.4,8.2 14.3,15.9 15.3,16.9 1.7,1.9 1.8,1.2 1.2,-20l-0.6,-21.9 -8.6,-9.4c-4.7,-5.2 -14.4,-15.5 -21.6,-22.8l-13,-13.3 -14,0.6c-29.5,1.1 -54.4,4.7 -71.2,10.4 -4.8,1.6 -8.9,2.8 -9,2.6 -0.2,-0.1 -1,-3.9 -1.8,-8.5 -3.1,-16.2 -10.2,-36.1 -15.7,-44.3 -5.8,-8.5 5,1.4 11.7,10.7 5.5,7.8 8.8,14.3 11.5,23.1l2.1,7.1 10.7,-2.8c14.7,-4 37.7,-7 54.3,-7.2 7.6,-0.1 13.9,-0.5 13.9,-0.9 0,-0.6 -29.5,-29 -41,-39.4 -10.5,-9.5 -16.5,-14.2 -19,-14.8 -1.4,-0.3 -12.6,-1.8 -25,-3.2 -21.1,-2.4 -40.6,-5.6 -54.5,-8.9 -6.5,-1.6 0.2,-1.6 63.7,0.4zM764.5,463.1c-14.5,3.4 -29.7,5.8 -53.5,8.5 -15.6,1.7 -24.6,3.1 -26.7,4.2 -4.4,2.3 -21.3,17.4 -41.2,36.8l-16.6,16.1 15,0.7c25.1,1.2 40.2,3.5 56.8,8.6 3.8,1.2 7,2 7.1,1.8 0.1,-0.2 1.4,-4.3 3,-9.1 3.6,-10.9 10.7,-22.5 18.1,-29.7l5.7,-5.5 -4.6,9.3c-5.9,11.8 -10,24 -12.2,36.2 -0.9,5.2 -2,9.9 -2.4,10.3 -0.4,0.4 -3.1,-0.2 -6,-1.3 -16.2,-6.4 -44.8,-10.8 -73.3,-11.2l-15.8,-0.3 -8.7,9c-4.8,5 -14.4,15.3 -21.4,22.8l-12.8,13.8 0,21c0,13.6 0.4,20.9 1,20.7 0.5,-0.2 8.8,-8.8 18.2,-19.3 22.6,-24.8 31.2,-31.6 46.3,-36.9 12.4,-4.3 16.2,-4.5 8.3,-0.5 -11.8,6 -26.7,20.1 -60,56.6 -13.2,14.5 -24,26.3 -24.1,26.3 -0.1,-0 -0.3,-15.7 -0.5,-34.9l-0.4,-34.8 4.2,-4.9c18.5,-21.5 73.8,-78.5 96.3,-99.3 11.8,-10.8 15.6,-13.7 18.5,-14.2 2,-0.4 16.3,-1 31.7,-1.4 15.4,-0.4 28.2,-0.9 28.4,-1.1 0.2,-0.2 7,-0.4 15,-0.3l14.6,0.1 -8,1.9zM517,707.3c8.7,-9.7 34.3,-35.3 34.8,-34.8 1.6,1.5 -37.1,56 -39.8,56 -1,-0 -20.5,-25.5 -29,-38 -5.5,-8.1 -11,-17.8 -10.9,-19.1 0,-0.5 9.1,8.5 20.3,19.9l20.3,20.8 4.3,-4.8z"/>
    <path fill="#1A237E" d="M504.3,585.2l-8.3,8.3 0,25 0,25 7.6,8.5c4.2,4.7 8,8.5 8.5,8.5 0.5,-0 4.2,-3.8 8.4,-8.5l7.5,-8.5 0,-25 0,-25.1 -7.7,-8.3 -7.8,-8.3 -8.2,8.4z"/>
</svg>

