<svg id="Icons" height="512" viewBox="0 0 74 74" width="512" xmlns="http://www.w3.org/2000/svg">
<path d="m33.52 9.29h-2.91a1 1 0 0 1 0-2h2.91a1 1 0 1 1 0 2z"/>
<path d="m17 66.71a1 1 0 0 1 -1-1v-11.42h-9a5.006 5.006 0 0 1 -5-5v-37a5.006 5.006 0 0 1 5-5h16.61a1 1 0 1 1 0 2h-16.61a3 3 0 0 0 -3 3v37a3 3 0 0 0 3 3h10a1 1 0 0 1 1 1v10.239l12.767-11a1 1 0 0 1 .653-.242h35.58a3 3 0 0 0 3-3v-37a3 3 0 0 0 -3-3h-16.51a1 1 0 0 1 0-2h16.51a5.006 5.006 0 0 1 5 5v37a5.006 5.006 0 0 1 -5 5h-35.209l-14.138 12.181a1 1 0 0 1 -.653.242z"/>
<path d="m43.49 9.29h-2.97a1 1 0 0 1 0-2h2.97a1 1 0 1 1 0 2z"/>
</svg>