<?xml version="1.0" standalone="no"?>
<!DOCTYPE svg PUBLIC "-//W3C//DTD SVG 20010904//EN"
 "http://www.w3.org/TR/2001/REC-SVG-20010904/DTD/svg10.dtd">
<svg version="1.0" xmlns="http://www.w3.org/2000/svg"
 width="361.000000pt" height="355.000000pt" viewBox="0 0 361.000000 355.000000"
 preserveAspectRatio="xMidYMid meet">
<metadata>
Created by potrace 1.15, written by Peter Selinger 2001-2017
</metadata>
<g transform="translate(0.000000,355.000000) scale(0.100000,-0.100000)"
fill="#FCD440" stroke="none">
<path d="M1355 3388 c-2 -7 -25 -98 -51 -203 -26 -104 -53 -202 -61 -217 l-13
-27 53 23 c84 38 212 75 310 91 51 8 94 15 97 15 3 0 -68 74 -158 165 -91 91
-166 165 -169 165 -2 0 -5 -6 -8 -12z"/>
<path d="M2069 3235 c-91 -91 -163 -165 -160 -165 3 0 47 -7 98 -15 98 -16
226 -53 310 -91 57 -25 60 -24 39 9 -7 12 -35 110 -61 217 -26 107 -51 198
-54 202 -4 4 -81 -67 -172 -157z"/>
<path d="M604 2958 c20 -60 101 -355 110 -401 l12 -58 34 48 c49 69 175 198
249 254 54 41 60 49 39 49 -18 0 -301 76 -430 116 -12 3 -16 1 -14 -8z"/>
<path d="M2785 2910 c-110 -32 -213 -59 -229 -59 -27 -1 -26 -4 35 -50 75 -56
215 -200 255 -261 l29 -43 7 39 c5 31 89 339 114 417 3 9 2 17 -3 16 -4 -1
-98 -27 -208 -59z"/>
<path d="M607 2328 c-11 -5 -110 -33 -222 -62 -112 -28 -205 -54 -207 -58 -2
-4 72 -82 163 -175 l166 -168 11 85 c14 106 33 176 76 293 19 50 34 92 33 93
-1 2 -10 -2 -20 -8z"/>
<path d="M2975 2322 c62 -146 115 -341 115 -425 0 -33 4 -30 170 137 93 94
166 173 162 177 -4 3 -92 28 -197 53 -104 26 -205 54 -223 62 -32 13 -34 13
-27 -4z"/>
<path d="M336 1503 c-111 -113 -164 -174 -155 -177 8 -3 97 -26 198 -51 101
-25 199 -52 218 -60 33 -14 35 -14 28 3 -55 130 -98 288 -117 437 -2 15 -42
-19 -172 -152z"/>
<path d="M3090 1643 c0 -84 -53 -279 -115 -425 -7 -17 -5 -17 28 -3 19 8 120
35 223 61 104 26 192 50 196 53 4 4 -69 83 -162 177 -166 167 -170 170 -170
137z"/>
<path d="M720 1019 c0 -14 -26 -119 -59 -234 -32 -116 -58 -211 -57 -212 1 -1
96 25 211 57 115 33 220 60 233 60 20 0 16 6 -30 41 -77 60 -172 154 -231 229
-28 36 -54 69 -59 75 -4 5 -8 -2 -8 -16z"/>
<path d="M2846 1000 c-40 -61 -181 -205 -255 -261 -53 -41 -60 -49 -40 -49 13
0 119 -27 234 -59 115 -33 211 -59 212 -58 1 2 -21 81 -48 177 -28 96 -56 201
-63 233 l-12 59 -28 -42z"/>
<path d="M1242 577 c6 -12 35 -113 63 -224 28 -112 54 -205 57 -208 3 -3 79
69 169 160 91 91 162 165 159 165 -3 0 -46 7 -97 15 -98 16 -226 53 -311 91
l-52 23 12 -22z"/>
<path d="M2313 574 c-103 -46 -228 -80 -363 -98 l-46 -7 165 -164 c91 -91 168
-162 172 -158 3 5 28 96 54 203 26 107 54 206 62 218 8 13 13 25 11 26 -2 2
-26 -7 -55 -20z"/>
</g>
</svg>
