<?xml version="1.0" standalone="no"?>
<!DOCTYPE svg PUBLIC "-//W3C//DTD SVG 20010904//EN"
 "http://www.w3.org/TR/2001/REC-SVG-20010904/DTD/svg10.dtd">
<svg version="1.0" xmlns="http://www.w3.org/2000/svg"
 width="520.000000pt" height="500.000000pt" viewBox="0 0 520.000000 500.000000"
 preserveAspectRatio="xMidYMid meet">
<metadata>
Created by potrace 1.15, written by Peter Selinger 2001-2017
</metadata>
<g transform="translate(0.000000,500.000000) scale(0.100000,-0.100000)"
fill="#ffcc00" stroke="none">
<path d="M1095 4914 c-152 -23 -321 -82 -415 -145 -165 -111 -268 -227 -356
-404 -106 -212 -132 -475 -70 -702 58 -212 214 -436 382 -550 96 -65 221 -123
323 -150 138 -36 323 -42 447 -15 375 83 653 335 761 689 25 82 26 101 27 283
1 174 -1 203 -22 273 -97 336 -365 604 -692 691 -88 24 -310 41 -385 30z m182
-386 c6 -7 16 -29 22 -50 13 -41 56 -64 140 -75 25 -3 60 -14 77 -24 26 -16
32 -27 37 -67 3 -26 2 -67 -1 -92 -6 -41 -10 -45 -38 -48 -17 -2 -69 7 -115
19 -46 11 -120 23 -164 26 -72 5 -83 3 -114 -18 -44 -31 -47 -41 -19 -73 17
-20 64 -41 183 -82 200 -68 257 -104 292 -181 22 -48 25 -65 21 -132 -8 -125
-56 -188 -194 -251 -81 -38 -123 -77 -109 -100 4 -6 1 -24 -5 -41 -12 -27 -16
-29 -67 -29 -62 0 -93 13 -93 39 0 10 -5 32 -10 48 -10 28 -18 32 -130 63 -65
17 -126 37 -135 44 -23 16 -36 82 -29 142 9 79 10 79 100 51 192 -61 322 -69
392 -27 39 24 43 66 10 97 -13 11 -86 41 -164 67 -162 54 -235 93 -281 154
-63 83 -66 162 -10 267 37 69 98 120 164 138 55 14 93 56 93 101 0 18 3 36 7
39 12 13 130 8 140 -5z"/>
<path d="M1998 2841 c-597 -594 -1110 -1111 -1140 -1148 -79 -98 -84 -110 -61
-142 11 -14 31 -32 45 -39 16 -7 204 -26 470 -47 243 -19 518 -42 610 -50 218
-20 276 -19 315 3 17 9 111 103 209 207 149 159 779 822 1494 1573 276 290
429 455 456 494 21 30 24 42 17 64 -15 46 -49 62 -158 74 -165 18 -911 80
-1045 86 l-126 7 -1086 -1082z"/>
<path d="M4509 3483 c-85 -87 -335 -347 -554 -578 -388 -408 -554 -583 -1193
-1259 -167 -177 -312 -338 -324 -360 -19 -37 -19 -42 -4 -105 207 -902 227
-979 257 -1003 49 -41 62 -33 316 210 416 400 2081 2066 2098 2101 12 24 15
46 11 75 -4 23 -81 265 -172 538 -179 537 -179 538 -249 538 -27 0 -51 -20
-186 -157z"/>
<path d="M689 1289 c-12 -12 -41 -62 -64 -113 -69 -145 -307 -757 -312 -801
-7 -59 20 -89 94 -104 60 -12 692 -72 1223 -116 168 -14 323 -28 345 -30 22
-3 110 -12 195 -20 225 -21 259 -8 260 93 0 47 -114 563 -189 851 l-26 104
-45 13 c-66 19 -331 51 -616 74 -137 11 -258 22 -270 25 -37 8 -455 45 -516
45 -46 0 -62 -4 -79 -21z"/>
</g>
</svg>
